{
	"asset":{
		"generator":"Khronos glTF Blender I/O v4.2.60",
		"version":"2.0"
	},
	"extensionsUsed":[
		"KHR_materials_specular"
	],
	"scene":0,
	"scenes":[
		{
			"name":"Scene",
			"nodes":[
				10
			]
		}
	],
	"nodes":[
		{
			"mesh":0,
			"name":"C_LightBulb",
			"translation":[
				-0.0006736726500093937,
				0,
				0.03859420865774155
			]
		},
		{
			"mesh":1,
			"name":"S_LightBulb",
			"translation":[
				-0.00040143943624570966,
				0,
				0.02299818955361843
			]
		},
		{
			"children":[
				0,
				1
			],
			"mesh":2,
			"name":"Abajur",
			"translation":[
				-6.606787792406976e-05,
				0.014396607875823975,
				0.0037849631626158953
			]
		},
		{
			"children":[
				2
			],
			"mesh":3,
			"name":"AbajurJoint",
			"translation":[
				0,
				0.020318031311035156,
				0
			]
		},
		{
			"children":[
				3
			],
			"mesh":4,
			"name":"ArmToAbajurJoint",
			"translation":[
				-2.433254849165678e-06,
				0.12583598494529724,
				0.00014111539348959923
			]
		},
		{
			"children":[
				4
			],
			"mesh":5,
			"name":"ShortArm",
			"translation":[
				-0.005818509962409735,
				0.3471287190914154,
				-0.000101535115391016
			]
		},
		{
			"children":[
				5
			],
			"mesh":6,
			"name":"LongArm",
			"translation":[
				0.005818509962409735,
				0,
				0.00010156212374567986
			]
		},
		{
			"children":[
				6
			],
			"mesh":7,
			"name":"CircleJoint",
			"translation":[
				0.00013106132973916829,
				0.028400564566254616,
				-0.007508410140872002
			]
		},
		{
			"children":[
				7
			],
			"mesh":8,
			"name":"SupportJoint"
		},
		{
			"children":[
				8
			],
			"mesh":9,
			"name":"SupportJointHolder",
			"scale":[
				40,
				40,
				40
			],
			"translation":[
				0,
				0.3899211883544922,
				0
			]
		},
		{
			"children":[
				9
			],
			"mesh":10,
			"name":"Support"
		}
	],
	"animations":[
		{
			"channels":[
				{
					"sampler":0,
					"target":{
						"node":10,
						"path":"rotation"
					}
				}
			],
			"name":"SupportAction.002",
			"samplers":[
				{
					"input":59,
					"interpolation":"LINEAR",
					"output":60
				}
			]
		},
		{
			"channels":[
				{
					"sampler":0,
					"target":{
						"node":8,
						"path":"rotation"
					}
				}
			],
			"name":"SupportJointAction.001",
			"samplers":[
				{
					"input":59,
					"interpolation":"LINEAR",
					"output":61
				}
			]
		},
		{
			"channels":[
				{
					"sampler":0,
					"target":{
						"node":6,
						"path":"rotation"
					}
				}
			],
			"name":"LongArmAction",
			"samplers":[
				{
					"input":59,
					"interpolation":"LINEAR",
					"output":62
				}
			]
		},
		{
			"channels":[
				{
					"sampler":0,
					"target":{
						"node":5,
						"path":"rotation"
					}
				}
			],
			"name":"ShortArmAction",
			"samplers":[
				{
					"input":59,
					"interpolation":"LINEAR",
					"output":63
				}
			]
		},
		{
			"channels":[
				{
					"sampler":0,
					"target":{
						"node":4,
						"path":"rotation"
					}
				}
			],
			"name":"ArmToAbajurJointAction.002",
			"samplers":[
				{
					"input":59,
					"interpolation":"LINEAR",
					"output":64
				}
			]
		},
		{
			"channels":[
				{
					"sampler":0,
					"target":{
						"node":3,
						"path":"rotation"
					}
				}
			],
			"name":"AbajurJointAction.003",
			"samplers":[
				{
					"input":59,
					"interpolation":"LINEAR",
					"output":65
				}
			]
		}
	],
	"materials":[
		{
			"doubleSided":true,
			"emissiveFactor":[
				1,
				1,
				1
			],
			"name":"LightBulb",
			"pbrMetallicRoughness":{
				"baseColorFactor":[
					0,
					0,
					0,
					1
				]
			}
		},
		{
			"doubleSided":true,
			"emissiveFactor":[
				0.10000000149011612,
				0.10000000149011612,
				0.10000000149011612
			],
			"name":"LightBulbBase",
			"pbrMetallicRoughness":{
				"metallicFactor":0
			}
		},
		{
			"doubleSided":true,
			"emissiveFactor":[
				0.10000000149011612,
				0.10000000149011612,
				0.10000000149011612
			],
			"name":"Interior",
			"pbrMetallicRoughness":{
				"baseColorFactor":[
					0,
					0,
					0,
					1
				],
				"roughnessFactor":0.10000000149011612
			}
		},
		{
			"doubleSided":true,
			"name":"Azul Macaubas Blue Marble",
			"normalTexture":{
				"index":0,
				"texCoord":1
			},
			"pbrMetallicRoughness":{
				"baseColorTexture":{
					"index":1,
					"texCoord":1
				},
				"metallicFactor":0,
				"metallicRoughnessTexture":{
					"index":2,
					"texCoord":1
				}
			}
		},
		{
			"doubleSided":true,
			"extensions":{
				"KHR_materials_specular":{
					"specularFactor":0.10000000149011612
				}
			},
			"name":"Paper",
			"normalTexture":{
				"index":3
			},
			"pbrMetallicRoughness":{
				"baseColorTexture":{
					"index":4
				},
				"metallicFactor":0,
				"metallicRoughnessTexture":{
					"index":5
				}
			}
		},
		{
			"doubleSided":true,
			"extensions":{
				"KHR_materials_specular":{
					"specularFactor":0.10000000149011612
				}
			},
			"name":"Paper",
			"normalTexture":{
				"index":3,
				"texCoord":1
			},
			"pbrMetallicRoughness":{
				"baseColorTexture":{
					"index":4,
					"texCoord":1
				},
				"metallicFactor":0,
				"metallicRoughnessTexture":{
					"index":5,
					"texCoord":1
				}
			}
		}
	],
	"meshes":[
		{
			"name":"C_LightBulbMesh",
			"primitives":[
				{
					"attributes":{
						"POSITION":0,
						"NORMAL":1,
						"TEXCOORD_0":2
					},
					"indices":3,
					"material":0
				},
				{
					"attributes":{
						"POSITION":4,
						"NORMAL":5,
						"TEXCOORD_0":6
					},
					"indices":7,
					"material":1
				}
			]
		},
		{
			"name":"S_LightBulbMesh.001",
			"primitives":[
				{
					"attributes":{
						"POSITION":8,
						"NORMAL":9,
						"TEXCOORD_0":10
					},
					"indices":11,
					"material":0
				},
				{
					"attributes":{
						"POSITION":12,
						"NORMAL":13,
						"TEXCOORD_0":14
					},
					"indices":15,
					"material":1
				}
			]
		},
		{
			"name":"AbajurMesh",
			"primitives":[
				{
					"attributes":{
						"POSITION":16,
						"NORMAL":17,
						"TEXCOORD_0":18,
						"TEXCOORD_1":19
					},
					"indices":20,
					"material":2
				},
				{
					"attributes":{
						"POSITION":21,
						"NORMAL":22,
						"TEXCOORD_0":23,
						"TEXCOORD_1":24
					},
					"indices":25,
					"material":3
				}
			]
		},
		{
			"name":"AbajurJointMesh",
			"primitives":[
				{
					"attributes":{
						"POSITION":26,
						"NORMAL":27,
						"TEXCOORD_0":28
					},
					"indices":29,
					"material":4
				}
			]
		},
		{
			"name":"ArmToAbajutJointMesh",
			"primitives":[
				{
					"attributes":{
						"POSITION":30,
						"NORMAL":31,
						"TEXCOORD_0":32
					},
					"indices":33,
					"material":4
				}
			]
		},
		{
			"name":"ShortArmMesh",
			"primitives":[
				{
					"attributes":{
						"POSITION":34,
						"NORMAL":35,
						"TEXCOORD_0":36
					},
					"indices":37,
					"material":4
				}
			]
		},
		{
			"name":"LongArmMesh",
			"primitives":[
				{
					"attributes":{
						"POSITION":38,
						"NORMAL":39,
						"TEXCOORD_0":40
					},
					"indices":41,
					"material":4
				}
			]
		},
		{
			"name":"CircleJointMesh",
			"primitives":[
				{
					"attributes":{
						"POSITION":42,
						"NORMAL":43,
						"TEXCOORD_0":44
					},
					"indices":45,
					"material":4
				}
			]
		},
		{
			"name":"SupportJointMesh",
			"primitives":[
				{
					"attributes":{
						"POSITION":46,
						"NORMAL":47,
						"TEXCOORD_0":48
					},
					"indices":49,
					"material":4
				}
			]
		},
		{
			"name":"SupportJointHolder",
			"primitives":[
				{
					"attributes":{
						"POSITION":50,
						"NORMAL":51,
						"TEXCOORD_0":52
					},
					"indices":53,
					"material":4
				}
			]
		},
		{
			"name":"SupportMesh",
			"primitives":[
				{
					"attributes":{
						"POSITION":54,
						"NORMAL":55,
						"TEXCOORD_0":56,
						"TEXCOORD_1":57
					},
					"indices":58,
					"material":5
				}
			]
		}
	],
	"textures":[
		{
			"sampler":0,
			"source":0
		},
		{
			"sampler":0,
			"source":1
		},
		{
			"sampler":0,
			"source":2
		},
		{
			"sampler":0,
			"source":3
		},
		{
			"sampler":0,
			"source":4
		},
		{
			"sampler":0,
			"source":5
		}
	],
	"images":[
		{
			"mimeType":"image/jpeg",
			"name":"normal_map",
			"uri":"normal_map.jpg"
		},
		{
			"mimeType":"image/jpeg",
			"name":"color_map",
			"uri":"color_map.jpg"
		},
		{
			"mimeType":"image/png",
			"name":"roughness_map",
			"uri":"roughness_map.png"
		},
		{
			"mimeType":"image/jpeg",
			"name":"paper_01_normal",
			"uri":"paper_01_normal.jpg"
		},
		{
			"mimeType":"image/jpeg",
			"name":"paper_01_color",
			"uri":"paper_01_color.jpg"
		},
		{
			"mimeType":"image/png",
			"name":"paper_01_roughness",
			"uri":"paper_01_roughness.png"
		}
	],
	"accessors":[
		{
			"bufferView":0,
			"componentType":5126,
			"count":50,
			"max":[
				0.011015844531357288,
				0.011195991188287735,
				0.04404198378324509
			],
			"min":[
				-0.011959644965827465,
				-0.011196020990610123,
				0.010027773678302765
			],
			"type":"VEC3"
		},
		{
			"bufferView":1,
			"componentType":5126,
			"count":50,
			"type":"VEC3"
		},
		{
			"bufferView":2,
			"componentType":5126,
			"count":50,
			"type":"VEC2"
		},
		{
			"bufferView":3,
			"componentType":5123,
			"count":138,
			"type":"SCALAR"
		},
		{
			"bufferView":4,
			"componentType":5126,
			"count":102,
			"max":[
				0.01170035358518362,
				0.011868073605000973,
				0.010418572463095188
			],
			"min":[
				-0.01203218661248684,
				-0.011868082918226719,
				-0.016828352585434914
			],
			"type":"VEC3"
		},
		{
			"bufferView":5,
			"componentType":5126,
			"count":102,
			"type":"VEC3"
		},
		{
			"bufferView":6,
			"componentType":5126,
			"count":102,
			"type":"VEC2"
		},
		{
			"bufferView":7,
			"componentType":5123,
			"count":288,
			"type":"SCALAR"
		},
		{
			"bufferView":8,
			"componentType":5126,
			"count":237,
			"max":[
				0.02447456866502762,
				0.025464486330747604,
				0.0795242115855217
			],
			"min":[
				-0.026446741074323654,
				-0.025464588776230812,
				0.017786618322134018
			],
			"type":"VEC3"
		},
		{
			"bufferView":9,
			"componentType":5126,
			"count":237,
			"type":"VEC3"
		},
		{
			"bufferView":10,
			"componentType":5126,
			"count":237,
			"type":"VEC2"
		},
		{
			"bufferView":11,
			"componentType":5123,
			"count":1104,
			"type":"SCALAR"
		},
		{
			"bufferView":12,
			"componentType":5126,
			"count":51,
			"max":[
				0.012359325774013996,
				0.012440942227840424,
				0.01818111166357994
			],
			"min":[
				-0.012715025804936886,
				-0.0124409981071949,
				-0.00021573637786787003
			],
			"type":"VEC3"
		},
		{
			"bufferView":13,
			"componentType":5126,
			"count":51,
			"type":"VEC3"
		},
		{
			"bufferView":14,
			"componentType":5126,
			"count":51,
			"type":"VEC2"
		},
		{
			"bufferView":15,
			"componentType":5123,
			"count":192,
			"type":"SCALAR"
		},
		{
			"bufferView":16,
			"componentType":5126,
			"count":184,
			"max":[
				0.06580520421266556,
				0.06582259386777878,
				0.11608117073774338
			],
			"min":[
				-0.06981633603572845,
				-0.06582288444042206,
				0.021505048498511314
			],
			"type":"VEC3"
		},
		{
			"bufferView":17,
			"componentType":5126,
			"count":184,
			"type":"VEC3"
		},
		{
			"bufferView":18,
			"componentType":5126,
			"count":184,
			"type":"VEC2"
		},
		{
			"bufferView":19,
			"componentType":5126,
			"count":184,
			"type":"VEC2"
		},
		{
			"bufferView":20,
			"componentType":5123,
			"count":666,
			"type":"SCALAR"
		},
		{
			"bufferView":21,
			"componentType":5126,
			"count":376,
			"max":[
				0.07612919062376022,
				0.07579098641872406,
				0.11666932702064514
			],
			"min":[
				-0.08009294420480728,
				-0.07579126954078674,
				-8.893087215255946e-05
			],
			"type":"VEC3"
		},
		{
			"bufferView":22,
			"componentType":5126,
			"count":376,
			"type":"VEC3"
		},
		{
			"bufferView":23,
			"componentType":5126,
			"count":376,
			"type":"VEC2"
		},
		{
			"bufferView":24,
			"componentType":5126,
			"count":376,
			"type":"VEC2"
		},
		{
			"bufferView":25,
			"componentType":5123,
			"count":1536,
			"type":"SCALAR"
		},
		{
			"bufferView":26,
			"componentType":5126,
			"count":506,
			"max":[
				0.007525543682277203,
				0.021841872483491898,
				0.0063419342041015625
			],
			"min":[
				-0.007706976030021906,
				-0.004830236546695232,
				-0.006102668587118387
			],
			"type":"VEC3"
		},
		{
			"bufferView":27,
			"componentType":5126,
			"count":506,
			"type":"VEC3"
		},
		{
			"bufferView":28,
			"componentType":5126,
			"count":506,
			"type":"VEC2"
		},
		{
			"bufferView":29,
			"componentType":5123,
			"count":1818,
			"type":"SCALAR"
		},
		{
			"bufferView":30,
			"componentType":5126,
			"count":90,
			"max":[
				0.005055931396782398,
				0.0161378625780344,
				0.005055924877524376
			],
			"min":[
				-0.005055924877524376,
				-0.002231331542134285,
				-0.0050559211522340775
			],
			"type":"VEC3"
		},
		{
			"bufferView":31,
			"componentType":5126,
			"count":90,
			"type":"VEC3"
		},
		{
			"bufferView":32,
			"componentType":5126,
			"count":90,
			"type":"VEC2"
		},
		{
			"bufferView":33,
			"componentType":5123,
			"count":228,
			"type":"SCALAR"
		},
		{
			"bufferView":34,
			"componentType":5126,
			"count":348,
			"max":[
				0.0030761915259063244,
				0.12811371684074402,
				0.011990094557404518
			],
			"min":[
				-0.0030761572998017073,
				-0.011942223645746708,
				-0.011990094557404518
			],
			"type":"VEC3"
		},
		{
			"bufferView":35,
			"componentType":5126,
			"count":348,
			"type":"VEC3"
		},
		{
			"bufferView":36,
			"componentType":5126,
			"count":348,
			"type":"VEC2"
		},
		{
			"bufferView":37,
			"componentType":5123,
			"count":978,
			"type":"SCALAR"
		},
		{
			"bufferView":38,
			"componentType":5126,
			"count":578,
			"max":[
				0.003076213877648115,
				0.35913440585136414,
				0.011990162543952465
			],
			"min":[
				-0.003076160093769431,
				-0.011983495205640793,
				-0.011990093626081944
			],
			"type":"VEC3"
		},
		{
			"bufferView":39,
			"componentType":5126,
			"count":578,
			"type":"VEC3"
		},
		{
			"bufferView":40,
			"componentType":5126,
			"count":578,
			"type":"VEC2"
		},
		{
			"bufferView":41,
			"componentType":5123,
			"count":1686,
			"type":"SCALAR"
		},
		{
			"bufferView":42,
			"componentType":5126,
			"count":308,
			"max":[
				0.003076161490753293,
				0.011942224577069283,
				0.011990095488727093
			],
			"min":[
				-0.003076161490753293,
				-0.019801726564764977,
				-0.011990095488727093
			],
			"type":"VEC3"
		},
		{
			"bufferView":43,
			"componentType":5126,
			"count":308,
			"type":"VEC3"
		},
		{
			"bufferView":44,
			"componentType":5126,
			"count":308,
			"type":"VEC2"
		},
		{
			"bufferView":45,
			"componentType":5123,
			"count":870,
			"type":"SCALAR"
		},
		{
			"bufferView":46,
			"componentType":5126,
			"count":181,
			"max":[
				0.005059320945292711,
				0.00839970726519823,
				0.015255896374583244
			],
			"min":[
				-0.005059320945292711,
				-0.0047952174209058285,
				-0.015255896374583244
			],
			"type":"VEC3"
		},
		{
			"bufferView":47,
			"componentType":5126,
			"count":181,
			"type":"VEC3"
		},
		{
			"bufferView":48,
			"componentType":5126,
			"count":181,
			"type":"VEC2"
		},
		{
			"bufferView":49,
			"componentType":5123,
			"count":612,
			"type":"SCALAR"
		},
		{
			"bufferView":50,
			"componentType":5126,
			"count":284,
			"max":[
				0.005260721314698458,
				0.0048427763395011425,
				0.03150312975049019
			],
			"min":[
				-0.005260721314698458,
				-0.007756603416055441,
				-0.03150312975049019
			],
			"type":"VEC3"
		},
		{
			"bufferView":51,
			"componentType":5126,
			"count":284,
			"type":"VEC3"
		},
		{
			"bufferView":52,
			"componentType":5126,
			"count":284,
			"type":"VEC2"
		},
		{
			"bufferView":53,
			"componentType":5123,
			"count":996,
			"type":"SCALAR"
		},
		{
			"bufferView":54,
			"componentType":5126,
			"count":130,
			"max":[
				1.8276633024215698,
				0.15698674321174622,
				1.8343652486801147
			],
			"min":[
				-1.8276633024215698,
				-0.15698674321174622,
				-1.8343652486801147
			],
			"type":"VEC3"
		},
		{
			"bufferView":55,
			"componentType":5126,
			"count":130,
			"type":"VEC3"
		},
		{
			"bufferView":56,
			"componentType":5126,
			"count":130,
			"type":"VEC2"
		},
		{
			"bufferView":57,
			"componentType":5126,
			"count":130,
			"type":"VEC2"
		},
		{
			"bufferView":58,
			"componentType":5123,
			"count":348,
			"type":"SCALAR"
		},
		{
			"bufferView":59,
			"componentType":5126,
			"count":201,
			"max":[
				6.666666666666667
			],
			"min":[
				0
			],
			"type":"SCALAR"
		},
		{
			"bufferView":60,
			"componentType":5126,
			"count":201,
			"type":"VEC4"
		},
		{
			"bufferView":61,
			"componentType":5126,
			"count":201,
			"type":"VEC4"
		},
		{
			"bufferView":62,
			"componentType":5126,
			"count":201,
			"type":"VEC4"
		},
		{
			"bufferView":63,
			"componentType":5126,
			"count":201,
			"type":"VEC4"
		},
		{
			"bufferView":64,
			"componentType":5126,
			"count":201,
			"type":"VEC4"
		},
		{
			"bufferView":65,
			"componentType":5126,
			"count":201,
			"type":"VEC4"
		}
	],
	"bufferViews":[
		{
			"buffer":0,
			"byteLength":600,
			"byteOffset":0,
			"target":34962
		},
		{
			"buffer":0,
			"byteLength":600,
			"byteOffset":600,
			"target":34962
		},
		{
			"buffer":0,
			"byteLength":400,
			"byteOffset":1200,
			"target":34962
		},
		{
			"buffer":0,
			"byteLength":276,
			"byteOffset":1600,
			"target":34963
		},
		{
			"buffer":0,
			"byteLength":1224,
			"byteOffset":1876,
			"target":34962
		},
		{
			"buffer":0,
			"byteLength":1224,
			"byteOffset":3100,
			"target":34962
		},
		{
			"buffer":0,
			"byteLength":816,
			"byteOffset":4324,
			"target":34962
		},
		{
			"buffer":0,
			"byteLength":576,
			"byteOffset":5140,
			"target":34963
		},
		{
			"buffer":0,
			"byteLength":2844,
			"byteOffset":5716,
			"target":34962
		},
		{
			"buffer":0,
			"byteLength":2844,
			"byteOffset":8560,
			"target":34962
		},
		{
			"buffer":0,
			"byteLength":1896,
			"byteOffset":11404,
			"target":34962
		},
		{
			"buffer":0,
			"byteLength":2208,
			"byteOffset":13300,
			"target":34963
		},
		{
			"buffer":0,
			"byteLength":612,
			"byteOffset":15508,
			"target":34962
		},
		{
			"buffer":0,
			"byteLength":612,
			"byteOffset":16120,
			"target":34962
		},
		{
			"buffer":0,
			"byteLength":408,
			"byteOffset":16732,
			"target":34962
		},
		{
			"buffer":0,
			"byteLength":384,
			"byteOffset":17140,
			"target":34963
		},
		{
			"buffer":0,
			"byteLength":2208,
			"byteOffset":17524,
			"target":34962
		},
		{
			"buffer":0,
			"byteLength":2208,
			"byteOffset":19732,
			"target":34962
		},
		{
			"buffer":0,
			"byteLength":1472,
			"byteOffset":21940,
			"target":34962
		},
		{
			"buffer":0,
			"byteLength":1472,
			"byteOffset":23412,
			"target":34962
		},
		{
			"buffer":0,
			"byteLength":1332,
			"byteOffset":24884,
			"target":34963
		},
		{
			"buffer":0,
			"byteLength":4512,
			"byteOffset":26216,
			"target":34962
		},
		{
			"buffer":0,
			"byteLength":4512,
			"byteOffset":30728,
			"target":34962
		},
		{
			"buffer":0,
			"byteLength":3008,
			"byteOffset":35240,
			"target":34962
		},
		{
			"buffer":0,
			"byteLength":3008,
			"byteOffset":38248,
			"target":34962
		},
		{
			"buffer":0,
			"byteLength":3072,
			"byteOffset":41256,
			"target":34963
		},
		{
			"buffer":0,
			"byteLength":6072,
			"byteOffset":44328,
			"target":34962
		},
		{
			"buffer":0,
			"byteLength":6072,
			"byteOffset":50400,
			"target":34962
		},
		{
			"buffer":0,
			"byteLength":4048,
			"byteOffset":56472,
			"target":34962
		},
		{
			"buffer":0,
			"byteLength":3636,
			"byteOffset":60520,
			"target":34963
		},
		{
			"buffer":0,
			"byteLength":1080,
			"byteOffset":64156,
			"target":34962
		},
		{
			"buffer":0,
			"byteLength":1080,
			"byteOffset":65236,
			"target":34962
		},
		{
			"buffer":0,
			"byteLength":720,
			"byteOffset":66316,
			"target":34962
		},
		{
			"buffer":0,
			"byteLength":456,
			"byteOffset":67036,
			"target":34963
		},
		{
			"buffer":0,
			"byteLength":4176,
			"byteOffset":67492,
			"target":34962
		},
		{
			"buffer":0,
			"byteLength":4176,
			"byteOffset":71668,
			"target":34962
		},
		{
			"buffer":0,
			"byteLength":2784,
			"byteOffset":75844,
			"target":34962
		},
		{
			"buffer":0,
			"byteLength":1956,
			"byteOffset":78628,
			"target":34963
		},
		{
			"buffer":0,
			"byteLength":6936,
			"byteOffset":80584,
			"target":34962
		},
		{
			"buffer":0,
			"byteLength":6936,
			"byteOffset":87520,
			"target":34962
		},
		{
			"buffer":0,
			"byteLength":4624,
			"byteOffset":94456,
			"target":34962
		},
		{
			"buffer":0,
			"byteLength":3372,
			"byteOffset":99080,
			"target":34963
		},
		{
			"buffer":0,
			"byteLength":3696,
			"byteOffset":102452,
			"target":34962
		},
		{
			"buffer":0,
			"byteLength":3696,
			"byteOffset":106148,
			"target":34962
		},
		{
			"buffer":0,
			"byteLength":2464,
			"byteOffset":109844,
			"target":34962
		},
		{
			"buffer":0,
			"byteLength":1740,
			"byteOffset":112308,
			"target":34963
		},
		{
			"buffer":0,
			"byteLength":2172,
			"byteOffset":114048,
			"target":34962
		},
		{
			"buffer":0,
			"byteLength":2172,
			"byteOffset":116220,
			"target":34962
		},
		{
			"buffer":0,
			"byteLength":1448,
			"byteOffset":118392,
			"target":34962
		},
		{
			"buffer":0,
			"byteLength":1224,
			"byteOffset":119840,
			"target":34963
		},
		{
			"buffer":0,
			"byteLength":3408,
			"byteOffset":121064,
			"target":34962
		},
		{
			"buffer":0,
			"byteLength":3408,
			"byteOffset":124472,
			"target":34962
		},
		{
			"buffer":0,
			"byteLength":2272,
			"byteOffset":127880,
			"target":34962
		},
		{
			"buffer":0,
			"byteLength":1992,
			"byteOffset":130152,
			"target":34963
		},
		{
			"buffer":0,
			"byteLength":1560,
			"byteOffset":132144,
			"target":34962
		},
		{
			"buffer":0,
			"byteLength":1560,
			"byteOffset":133704,
			"target":34962
		},
		{
			"buffer":0,
			"byteLength":1040,
			"byteOffset":135264,
			"target":34962
		},
		{
			"buffer":0,
			"byteLength":1040,
			"byteOffset":136304,
			"target":34962
		},
		{
			"buffer":0,
			"byteLength":696,
			"byteOffset":137344,
			"target":34963
		},
		{
			"buffer":0,
			"byteLength":804,
			"byteOffset":138040
		},
		{
			"buffer":0,
			"byteLength":3216,
			"byteOffset":138844
		},
		{
			"buffer":0,
			"byteLength":3216,
			"byteOffset":142060
		},
		{
			"buffer":0,
			"byteLength":3216,
			"byteOffset":145276
		},
		{
			"buffer":0,
			"byteLength":3216,
			"byteOffset":148492
		},
		{
			"buffer":0,
			"byteLength":3216,
			"byteOffset":151708
		},
		{
			"buffer":0,
			"byteLength":3216,
			"byteOffset":154924
		}
	],
	"samplers":[
		{
			"magFilter":9729,
			"minFilter":9987
		}
	],
	"buffers":[
		{
			"byteLength":158140,
			"uri":"d.bin"
		}
	]
}
